<svg width="1087" height="1277" viewBox="0 0 1087 1277" fill="none" xmlns="http://www.w3.org/2000/svg">
<g id="grave">
<path id="front" d="M841.5 153.5C746.3 17.9 572 -6.50001 453 17C334 40.5 155 207.5 155 207.5L175.5 283.5L107.5 293L117 337.5L98 380.5V570.5L145.5 605.5L87 613.5L107.5 1200H919.5L960.5 1167.5V742L935 691L952.5 637.5V423C955.167 389.667 936.7 289.1 841.5 153.5Z" stroke="black" stroke-width="15"/>
<path id="flank" d="M1067 1087L962 1166V743.5L932 698L951.5 652.5V377C932.833 326.167 884 213 838 150.5C795.387 92.6013 673 27.5 622 9C652 4 754.8 21.3 832 56.5C909.2 91.7 982.167 157.5 1009 186V240.5L1041 281L1067 377V622.5L1041 680.5L1067 714V1087Z" fill="#7F7F7F" stroke="black" stroke-width="15"/>
<path id="grass" d="M1086 1054C1084.8 1047.2 1079.83 1045.83 1077.5 1046H1061.5V1083.5L969.5 1154H943.5L916.5 1182.5L855 1176L833 1170L816.5 1132L777 1177.5L764.5 1079L691.5 1196H582.5L567 1123.5L547.5 1196H465L431.5 1087L414.5 1196H289.5L287 1142L264 1160L255.5 1113L219.5 1196H107V1134L15 1071L57.5 1174L0.5 1144L60 1218.5L9 1196C13.1667 1203.33 22.8 1219.7 28 1226.5C33.2 1233.3 48.1667 1249.67 55 1257C58.6667 1261 71.8 1269.2 95 1270C118.2 1270.8 137.333 1263 144 1259C149.333 1255.5 164.2 1246.9 181 1240.5C197.8 1234.1 209.667 1239.83 213.5 1243.5C217 1246.67 226.8 1255.3 238 1264.5C252 1276 268 1277 284.5 1275C301 1273 305 1267.5 309.5 1263C314 1258.5 319 1254 327 1254C333.4 1254 339.333 1256.33 341.5 1257.5C345.167 1259.83 354.7 1264.2 363.5 1263C374.5 1261.5 377 1257 383.5 1248C390 1239 393 1236 401 1235.5C409 1235 414 1242 424 1254C434 1266 440.5 1269.5 458 1269.5C475.5 1269.5 486 1259 498.5 1245.5C511 1232 517 1231 525 1231C533 1231 544 1236 559 1243.5C574 1251 579 1248 585 1245.5C591 1243 596.5 1235.5 604.5 1226C612.5 1216.5 616 1214 635 1215C650.2 1215.8 663.667 1222.67 668.5 1226C679.167 1232.33 704.2 1245.5 719 1247.5C737.5 1250 740 1243.5 751 1235.5C762 1227.5 766.5 1228 785 1228.5C799.8 1228.9 820.833 1237.33 829.5 1241.5C838.333 1246 857.3 1255 862.5 1255C869 1255 876 1256 886 1243.5C896 1231 899.5 1230 905 1230C909.4 1230 914.5 1235.67 916.5 1238.5C920 1244 928.3 1256 933.5 1260C940 1265 950 1267 960.5 1271C971 1275 984.5 1272 990 1264.5C995.5 1257 997 1251 999.5 1237C1001.5 1225.8 1005.67 1218 1007.5 1215.5C1013 1207.5 1024.9 1190.4 1028.5 1186C1033 1180.5 1036.5 1171.5 1037.5 1166.5C1038.3 1162.5 1042.83 1154.5 1045 1151C1054 1135.67 1073.1 1103.1 1077.5 1095.5C1083 1086 1087.5 1062.5 1086 1054Z" fill="black" stroke="black"/>
<path id="crack" d="M690.846 97.8709C706.081 87.5072 720.246 68.9721 725.425 61L758.5 81.4284L676.313 133.247C666.457 133.247 642.937 132.749 627.703 130.756C612.468 128.763 577.589 124.278 562.054 122.285C559.381 126.77 552.331 137.532 545.516 144.707C538.7 151.882 513.276 157.994 501.416 160.153L496.905 186.56C494.4 204.497 495.903 207.985 496.905 227.417C497.707 242.963 508.599 258.143 513.944 263.79L571.074 297.671L535.493 289.699L524.468 346.5L520.96 300.162C510.102 283.886 487.284 248.244 482.874 235.887C478.464 223.531 479.366 194.864 480.368 182.076C473.352 188.387 457.015 202.405 447.794 207.985C438.573 213.566 421.902 210.31 414.719 207.985C404.028 216.954 380.741 236.685 373.124 243.86C365.507 251.034 341.886 282.723 331.028 297.671C334.035 287.042 343.156 261.896 355.584 246.351C368.013 230.805 390.831 214.296 400.687 207.985L373.124 194.034L318.5 196.525L364.104 177.592C368.614 178.256 381.142 180.98 395.174 186.56C409.206 192.141 428.751 193.868 436.769 194.034L447.794 186.56L476.359 157.661L535.493 110.825C520.459 106.507 485.981 97.8709 468.341 97.8709C450.7 97.8709 421.233 121.455 408.705 133.247C411.879 125.773 421.334 108.235 433.762 97.8709C446.19 87.5072 461.993 84.5841 468.341 84.418C483.876 84.9162 523.767 88.3044 559.047 97.8709C594.327 107.437 643.906 110.493 664.286 110.825C666.792 110.825 675.612 108.235 690.846 97.8709Z" fill="black" stroke="black"/>
<path id="R I P" d="M437.9 611.42H398.84L352.64 536.87L342.77 529.73L345.92 523.43H357.68C367.2 523.43 374.69 521.05 380.15 516.29C385.75 511.39 388.55 504.74 388.55 496.34C388.55 485.28 385.47 476.11 379.31 468.83C373.15 461.41 364.19 457.7 352.43 457.7C344.59 457.7 337.38 460.01 330.8 464.63V595.46L352.85 603.02L348.65 611.42H284.81V604.91L304.55 589.37V461.69L282.71 454.55L286.91 446.15H311.27C324.01 446.15 336.54 445.73 348.86 444.89C357.82 444.33 364.47 444.05 368.81 444.05C378.19 444.05 386.52 445.94 393.8 449.72C401.22 453.5 406.89 458.61 410.81 465.05C414.87 471.49 416.9 478.56 416.9 486.26C416.9 493.26 414.73 499.98 410.39 506.42C406.05 512.72 400.31 518.25 393.17 523.01C386.17 527.63 378.75 531.13 370.91 533.51L384.56 538.13L417.11 590.63L442.1 603.02L437.9 611.42ZM576.897 611H513.057V604.49L532.797 588.95V461.69L510.957 454.34L515.157 445.94H578.997V452.45L559.047 467.99V595.04L581.097 602.6L576.897 611ZM742.144 530.57C751.664 530.57 759.154 527.98 764.614 522.8C770.214 517.62 773.014 510.48 773.014 501.38C773.014 488.5 769.724 478 763.144 469.88C756.704 461.62 747.254 457.49 734.794 457.49C725.274 457.49 716.594 460.22 708.754 465.68V593.78L741.304 602.81L737.104 611.21H662.764V604.7L682.504 589.16V461.48L660.664 454.34L664.864 445.94H689.224C702.804 445.94 716.174 445.52 729.334 444.68C739.134 444.12 746.344 443.84 750.964 443.84C760.764 443.84 769.444 445.94 777.004 450.14C784.704 454.2 790.654 459.87 794.854 467.15C799.054 474.43 801.154 482.48 801.154 491.3C801.154 501.1 797.584 510.34 790.444 519.02C783.304 527.7 774.204 534.49 763.144 539.39C752.084 544.29 741.234 546.46 730.594 545.9L720.724 538.76L724.924 530.36H741.934L742.144 530.57Z" fill="black"/>
</g>
</svg>
