<svg width="253" height="224" viewBox="0 0 253 224" fill="none" xmlns="http://www.w3.org/2000/svg">
<g id="house">
<g id="front-wall">
<path d="M238.5 203L113 222V107.821L184.5 32.5L238.5 88.5V203Z" fill="#D9D9D9"/>
<path d="M113 222H112.5C112.5 222.146 112.564 222.284 112.674 222.379C112.784 222.474 112.931 222.516 113.075 222.494L113 222ZM238.5 203L238.575 203.494L239 203.43V203H238.5ZM238.5 88.5H239V88.2982L238.86 88.1529L238.5 88.5ZM184.5 32.5L184.86 32.1529L184.497 31.7767L184.137 32.1558L184.5 32.5ZM113 107.821L112.637 107.477L112.5 107.622V107.821H113ZM113.075 222.494L238.575 203.494L238.425 202.506L112.925 221.506L113.075 222.494ZM239 203V88.5H238V203H239ZM238.86 88.1529L184.86 32.1529L184.14 32.8471L238.14 88.8471L238.86 88.1529ZM184.137 32.1558L112.637 107.477L113.363 108.165L184.863 32.8442L184.137 32.1558ZM112.5 107.821V222H113.5V107.821H112.5Z" fill="black"/>
</g>
<g id="flank-wall">
<path d="M19 182.5L113 222V108L101 120.5L19 92.5V182.5Z" fill="#D9D9D9"/>
<path d="M113 222L112.806 222.461C112.961 222.526 113.137 222.509 113.277 222.416C113.416 222.324 113.5 222.167 113.5 222H113ZM19 182.5H18.5V182.832L18.8063 182.961L19 182.5ZM19 92.5L19.1616 92.0268L18.5 91.8009V92.5H19ZM101 120.5L100.838 120.973L101.14 121.076L101.361 120.846L101 120.5ZM113 108H113.5V106.757L112.639 107.654L113 108ZM113.194 221.539L19.1937 182.039L18.8063 182.961L112.806 222.461L113.194 221.539ZM19.5 182.5V92.5H18.5V182.5H19.5ZM18.8384 92.9732L100.838 120.973L101.162 120.027L19.1616 92.0268L18.8384 92.9732ZM101.361 120.846L113.361 108.346L112.639 107.654L100.639 120.154L101.361 120.846ZM112.5 108V222H113.5V108H112.5Z" fill="black"/>
</g>
<g id="roof-trims">
<path d="M188.5 28L101 120.5L2 86.5V83L101 117L188.5 25L251.5 90V94L188.5 28Z" fill="#343333"/>
<path d="M101 120.5L100.838 120.973L101.142 121.077L101.363 120.844L101 120.5ZM188.5 28L188.862 27.6548L188.498 27.2741L188.137 27.6564L188.5 28ZM251.5 94L251.138 94.3452C251.279 94.4931 251.496 94.5401 251.686 94.4641C251.876 94.3881 252 94.2043 252 94H251.5ZM251.5 90H252V89.7975L251.859 89.652L251.5 90ZM188.5 25L188.859 24.652C188.764 24.5543 188.634 24.4994 188.498 24.5C188.362 24.5006 188.232 24.5568 188.138 24.6554L188.5 25ZM101 117L100.838 117.473L101.141 117.577L101.362 117.345L101 117ZM2 83L2.16241 82.5271C2.00964 82.4746 1.84095 82.4992 1.70949 82.5931C1.57803 82.6869 1.5 82.8385 1.5 83H2ZM2 86.5H1.5V86.8569L1.83759 86.9729L2 86.5ZM101.363 120.844L188.863 28.3436L188.137 27.6564L100.637 120.156L101.363 120.844ZM188.138 28.3452L251.138 94.3452L251.862 93.6548L188.862 27.6548L188.138 28.3452ZM252 94V90H251V94H252ZM251.859 89.652L188.859 24.652L188.141 25.348L251.141 90.348L251.859 89.652ZM188.138 24.6554L100.638 116.655L101.362 117.345L188.862 25.3446L188.138 24.6554ZM101.162 116.527L2.16241 82.5271L1.83759 83.4729L100.838 117.473L101.162 116.527ZM1.5 83V86.5H2.5V83H1.5ZM1.83759 86.9729L100.838 120.973L101.162 120.027L2.16241 86.0271L1.83759 86.9729Z" fill="black"/>
</g>
<g id="roof">
<path d="M83 2L2 83L101 117L188.5 25L83 2Z" fill="#8F8F8F"/>
<path d="M2 83L1.64645 82.6464C1.52448 82.7684 1.47399 82.9446 1.51286 83.1127C1.55173 83.2807 1.67446 83.4169 1.83759 83.4729L2 83ZM83 2L83.1065 1.51147L82.8396 1.45329L82.6464 1.64645L83 2ZM188.5 25L188.862 25.3446C188.987 25.2137 189.031 25.0259 188.978 24.8532C188.925 24.6806 188.783 24.5499 188.607 24.5115L188.5 25ZM101 117L100.838 117.473L101.141 117.577L101.362 117.345L101 117ZM2.35355 83.3536L83.3536 2.35355L82.6464 1.64645L1.64645 82.6464L2.35355 83.3536ZM82.8935 2.48853L188.393 25.4885L188.607 24.5115L83.1065 1.51147L82.8935 2.48853ZM188.138 24.6554L100.638 116.655L101.362 117.345L188.862 25.3446L188.138 24.6554ZM101.162 116.527L2.16241 82.5271L1.83759 83.4729L100.838 117.473L101.162 116.527Z" fill="black"/>
</g>
<g id="roof-under">
<path d="M251.5 94H238.5V88.5L184 33L188.5 28L251.5 94Z" fill="#2B2B2B"/>
<path d="M238.5 94H238V94.5H238.5V94ZM251.5 94V94.5C251.7 94.5 251.881 94.3807 251.96 94.1967C252.038 94.0127 252 93.7995 251.862 93.6548L251.5 94ZM188.5 28L188.862 27.6548L188.489 27.2646L188.128 27.6655L188.5 28ZM184 33L183.628 32.6655L183.314 33.0149L183.643 33.3503L184 33ZM238.5 88.5H239V88.2956L238.857 88.1497L238.5 88.5ZM238.5 94.5H251.5V93.5H238.5V94.5ZM251.862 93.6548L188.862 27.6548L188.138 28.3452L251.138 94.3452L251.862 93.6548ZM188.128 27.6655L183.628 32.6655L184.372 33.3345L188.872 28.3345L188.128 27.6655ZM183.643 33.3503L238.143 88.8503L238.857 88.1497L184.357 32.6497L183.643 33.3503ZM238 88.5V94H239V88.5H238Z" fill="black"/>
</g>
<g id="doors">
<path id="doors-recess" d="M158.5 131L158 207.5L207 201V123.5L158.5 131Z" fill="#9E9E9E" stroke="black"/>
<path id="doors_2" d="M158.459 131L158 207.5L203 201.555V124.127L158.459 131Z" fill="#E5E5E5" stroke="black"/>
<circle id="handle" cx="162.5" cy="171" r="2.5" fill="black"/>
</g>
<g id="stairs">
<g id="stairs-flank">
<path d="M168.5 219.5L158 214.912V208L168.5 212.5L217.5 205.5V212L168.5 219.5Z" fill="#9E9E9E"/>
<path d="M158 214.912H157.5V215.24L157.8 215.371L158 214.912ZM168.5 219.5L168.3 219.958L168.433 220.016L168.576 219.994L168.5 219.5ZM217.5 212L217.576 212.494L218 212.429V212H217.5ZM217.5 205.5H218C218 205.355 217.937 205.217 217.828 205.122C217.718 205.027 217.573 204.985 217.429 205.005L217.5 205.5ZM168.5 212.5L168.303 212.96L168.432 213.015L168.571 212.995L168.5 212.5ZM158 208L158.197 207.54C158.042 207.474 157.865 207.49 157.725 207.583C157.584 207.675 157.5 207.832 157.5 208H158ZM157.8 215.371L168.3 219.958L168.7 219.042L158.2 214.454L157.8 215.371ZM168.576 219.994L217.576 212.494L217.424 211.506L168.424 219.006L168.576 219.994ZM218 212V205.5H217V212H218ZM217.429 205.005L168.429 212.005L168.571 212.995L217.571 205.995L217.429 205.005ZM168.697 212.04L158.197 207.54L157.803 208.46L168.303 212.96L168.697 212.04ZM157.5 208V214.912H158.5V208H157.5Z" fill="black"/>
</g>
<g id="stairs-top">
<path d="M217.5 205.5L168.5 212.5L158 208.5V205.5L203 199.5L217.5 205.5Z" fill="#9E9E9E"/>
<path d="M168.5 212.5L168.322 212.967L168.443 213.013L168.571 212.995L168.5 212.5ZM217.5 205.5L217.571 205.995C217.794 205.963 217.968 205.786 217.996 205.562C218.024 205.339 217.899 205.124 217.691 205.038L217.5 205.5ZM203 199.5L203.191 199.038L203.067 198.987L202.934 199.004L203 199.5ZM158 205.5L157.934 205.004C157.686 205.038 157.5 205.249 157.5 205.5H158ZM158 208.5H157.5V208.845L157.822 208.967L158 208.5ZM168.571 212.995L217.571 205.995L217.429 205.005L168.429 212.005L168.571 212.995ZM217.691 205.038L203.191 199.038L202.809 199.962L217.309 205.962L217.691 205.038ZM202.934 199.004L157.934 205.004L158.066 205.996L203.066 199.996L202.934 199.004ZM157.5 205.5V208.5H158.5V205.5H157.5ZM157.822 208.967L168.322 212.967L168.678 212.033L158.178 208.033L157.822 208.967Z" fill="black"/>
</g>
</g>
<g id="window-small">
<path id="window-small-recess" d="M197 100L162 105.5V74.5L197 69V100Z" fill="#9E9E9E" stroke="black"/>
<path id="window-small_2" d="M194.5 98L162 103.2V74.5349L194.5 69.5V98Z" fill="#E5FEFC" stroke="black"/>
</g>
<g id="window-big">
<path id="window-big-recess" d="M41.5 168.5V130.5L88 149.5V188.5L41.5 168.5Z" fill="#9E9E9E" stroke="black"/>
<path id="window-big_2" d="M44 167.5V131.5L88 149.5V186L44 167.5Z" fill="#E5FEFC" stroke="black"/>
</g>
</g>
</svg>
