<?xml version="1.0" standalone="no"?>
<!DOCTYPE svg PUBLIC "-//W3C//DTD SVG 20010904//EN"
 "http://www.w3.org/TR/2001/REC-SVG-20010904/DTD/svg10.dtd">
<svg version="1.0" xmlns="http://www.w3.org/2000/svg"
 width="767.000000pt" height="767.000000pt" viewBox="0 0 767.000000 767.000000"
 preserveAspectRatio="xMidYMid meet">
<metadata>
Created by potrace 1.11, written by Peter Selinger 2001-2013
</metadata>
<g transform="translate(0.000000,767.000000) scale(0.100000,-0.100000)"
fill="#000000" stroke="none">
<path d="M5242 7568 c-4 -3 -20 -9 -37 -12 -16 -3 -43 -8 -60 -11 -107 -20
-135 -25 -175 -30 -69 -9 -161 -18 -303 -31 -71 -6 -109 -9 -247 -18 -47 -4
-112 -9 -145 -11 -106 -9 -248 -17 -317 -19 -38 0 -68 -3 -68 -6 0 -3 -19 -5
-43 -6 -55 -1 -232 -12 -232 -15 0 -1 -22 -3 -50 -4 -49 -3 -129 -8 -295 -21
-47 -3 -103 -7 -125 -9 -22 -1 -78 -5 -125 -9 -79 -6 -114 -9 -290 -21 -36 -2
-92 -7 -125 -9 -33 -3 -96 -8 -140 -11 -44 -3 -107 -7 -140 -10 -33 -2 -93 -7
-132 -10 -109 -8 -199 -14 -288 -21 -44 -3 -102 -8 -130 -9 -27 -2 -50 -4 -50
-5 0 0 -40 -3 -88 -5 -48 -2 -92 -7 -97 -10 -9 -6 -33 29 -25 37 2 2 5 33 6
68 2 104 4 100 -33 89 -56 -17 -61 -18 -155 -39 -144 -31 -177 -34 -361 -34
-94 -1 -172 -1 -172 -1 0 -1 11 -38 24 -83 13 -45 21 -83 17 -83 -3 -1 -28 -3
-55 -5 -27 -2 -53 -7 -58 -12 -8 -8 -14 -42 -17 -93 -1 -9 -19 -44 -41 -78
l-40 -62 134 6 134 6 7 -58 c4 -32 9 -67 11 -78 7 -33 13 -77 19 -135 3 -30 7
-71 10 -90 4 -32 7 -64 20 -250 5 -73 13 -263 30 -710 11 -291 14 -382 30
-905 3 -82 7 -239 10 -349 3 -109 8 -202 11 -207 3 -5 0 -9 -6 -9 -6 0 -8 -5
-4 -12 4 -7 9 -60 10 -118 1 -58 5 -222 9 -365 4 -143 9 -330 11 -415 3 -85 7
-436 9 -780 2 -344 5 -638 6 -655 0 -16 0 -34 -1 -40 -2 -15 -2 -929 0 -940 1
-5 2 -14 1 -20 -1 -5 -3 -109 -4 -230 l-2 -220 -30 2 c-16 1 -75 4 -130 7 -55
4 -118 8 -140 11 -22 2 -80 7 -130 10 -49 3 -101 8 -115 10 -14 2 -61 7 -105
10 -44 3 -91 8 -105 10 -14 2 -59 7 -100 11 -41 3 -88 8 -105 10 -80 10 -115
11 -115 3 0 -5 4 -9 9 -9 17 0 147 -137 160 -168 17 -41 8 -87 -29 -145 l-30
-47 1273 0 c855 1 1266 4 1255 11 -10 5 -22 27 -28 49 -13 48 1 88 52 142 18
21 44 50 57 65 13 15 33 38 44 51 l21 22 -40 -4 c-36 -5 -101 -11 -214 -21
-25 -3 -67 -7 -95 -9 -58 -6 -220 -18 -285 -21 -25 -2 -106 -6 -180 -10 -150
-9 -505 -13 -567 -7 l-39 4 2 146 c2 149 10 498 20 852 2 107 7 285 9 395 3
110 7 283 10 385 2 102 7 282 10 400 2 118 5 215 5 215 1 0 3 79 5 175 6 269
16 670 19 723 1 26 -2 47 -7 47 -4 0 -5 6 0 13 4 6 8 64 9 127 2 113 8 386 19
895 4 143 8 350 10 460 2 110 4 212 4 226 1 18 30 63 87 135 48 60 89 111 93
114 3 3 33 39 66 80 32 41 62 77 65 80 3 3 19 23 36 45 16 22 36 47 45 55 9 8
36 40 60 70 45 57 54 68 77 95 8 9 36 44 64 78 28 34 59 69 67 78 9 9 30 34
46 54 17 21 38 47 48 59 11 11 35 41 55 65 78 95 300 309 390 376 7 6 22 18
32 27 28 25 291 198 301 198 5 0 28 12 52 27 23 14 43 26 44 25 2 -1 18 5 38
13 23 10 87 17 197 20 90 2 235 7 323 10 88 3 228 7 310 10 83 3 227 7 320 10
94 3 242 8 330 10 88 2 239 7 335 11 96 3 220 7 275 9 55 1 103 3 106 4 4 0
-1 34 -10 74 -16 68 -20 163 -8 217 3 14 8 42 12 63 l7 38 -46 -3 c-26 -2 -50
-6 -54 -10z m-2882 -517 c0 -2 -33 -54 -73 -115 -40 -61 -98 -149 -127 -196
-30 -47 -63 -94 -72 -104 -10 -11 -18 -23 -18 -27 0 -4 -26 -47 -58 -95 -71
-108 -233 -356 -313 -479 -32 -49 -62 -94 -67 -100 -4 -5 -27 -41 -51 -80 -24
-38 -48 -71 -53 -73 -4 -2 -8 -9 -8 -16 0 -7 -8 -20 -19 -30 -18 -16 -18 -15
-15 41 3 55 6 225 20 928 3 165 6 301 7 302 2 2 141 10 307 18 41 2 111 6 155
9 44 3 132 8 195 12 63 3 116 7 118 8 4 4 72 1 72 -3z"/>
</g>
</svg>
